<svg xmlns="http://www.w3.org/2000/svg" width="256" height="256" viewBox="0 0 256 256" role="img">
  <path d="M 16.00 125.62 L 16.00 131.73 L 16.68 132.41 L 16.68 134.45 L 17.36 135.13 L 17.36 136.48 L 18.04 137.16 L 18.04 138.52 L 18.72 139.20 L 18.72 139.88 L 19.39 140.56 L 19.39 141.24 L 20.75 142.59 L 20.75 143.27 L 21.43 143.95 L 21.43 144.63 L 22.11 145.31 L 22.11 145.99 L 24.15 148.02 L 24.15 148.70 L 28.22 152.78 L 28.22 153.45 L 36.36 161.60 L 37.04 161.60 L 39.08 163.64 L 39.76 163.64 L 41.79 165.67 L 42.47 165.67 L 44.51 167.71 L 45.19 167.71 L 46.55 169.07 L 47.22 169.07 L 48.58 170.42 L 49.26 170.42 L 49.94 171.10 L 50.62 171.10 L 51.30 171.78 L 51.98 171.78 L 52.65 172.46 L 53.33 172.46 L 54.69 173.82 L 55.37 173.82 L 56.05 174.50 L 56.73 174.50 L 57.41 175.18 L 58.08 175.18 L 58.76 175.85 L 59.44 175.85 L 60.12 176.53 L 60.80 176.53 L 61.48 177.21 L 62.16 177.21 L 62.84 177.89 L 64.19 177.89 L 64.87 178.57 L 65.55 178.57 L 66.23 179.25 L 66.91 179.25 L 67.59 179.93 L 68.95 179.93 L 69.62 180.61 L 70.98 180.61 L 71.66 181.28 L 72.34 181.28 L 73.02 181.96 L 74.38 181.96 L 75.05 182.64 L 76.41 182.64 L 77.09 183.32 L 78.45 183.32 L 79.13 184.00 L 81.16 184.00 L 81.84 184.68 L 83.88 184.68 L 84.56 185.36 L 86.59 185.36 L 87.27 186.04 L 89.31 186.04 L 89.99 186.72 L 92.02 186.72 L 92.70 187.39 L 95.42 187.39 L 96.10 188.07 L 99.49 188.07 L 100.17 188.75 L 103.56 188.75 L 104.24 189.43 L 108.99 189.43 L 109.67 190.11 L 119.18 190.11 L 119.85 190.79 L 133.43 190.79 L 134.11 190.11 L 142.25 190.11 L 142.93 189.43 L 148.36 189.43 L 149.04 188.75 L 152.44 188.75 L 153.12 188.07 L 156.51 188.07 L 157.19 187.39 L 159.90 187.39 L 160.58 186.72 L 162.62 186.72 L 163.30 186.04 L 166.01 186.04 L 166.69 185.36 L 168.73 185.36 L 169.41 184.68 L 171.44 184.68 L 172.12 184.00 L 173.48 184.00 L 174.16 183.32 L 176.19 183.32 L 176.87 182.64 L 178.23 182.64 L 178.91 181.96 L 180.27 181.96 L 180.95 181.28 L 182.30 181.28 L 182.98 180.61 L 183.66 180.61 L 184.34 179.93 L 185.70 179.93 L 186.38 179.25 L 187.73 179.25 L 188.41 178.57 L 189.09 178.57 L 189.77 177.89 L 190.45 177.89 L 191.13 177.21 L 192.48 177.21 L 193.16 176.53 L 193.84 176.53 L 194.52 175.85 L 195.20 175.85 L 195.88 175.18 L 196.56 175.18 L 197.24 174.50 L 197.92 174.50 L 198.59 173.82 L 199.27 173.82 L 199.95 173.14 L 200.63 173.14 L 201.31 172.46 L 201.99 172.46 L 202.67 171.78 L 203.35 171.78 L 204.70 170.42 L 205.38 170.42 L 206.06 169.75 L 206.74 169.75 L 208.10 168.39 L 208.78 168.39 L 210.13 167.03 L 210.81 167.03 L 212.17 165.67 L 212.85 165.67 L 214.88 163.64 L 215.56 163.64 L 217.60 161.60 L 218.28 161.60 L 230.50 149.38 L 230.50 148.70 L 232.53 146.67 L 232.53 145.99 L 233.89 144.63 L 233.89 143.95 L 234.57 143.27 L 234.57 142.59 L 235.93 141.24 L 235.93 140.56 L 236.61 139.88 L 236.61 139.20 L 237.28 138.52 L 237.28 137.84 L 237.96 137.16 L 237.96 135.81 L 238.64 135.13 L 238.64 133.09 L 239.32 132.41 L 239.32 124.95 L 238.64 124.27 L 238.64 123.59 L 235.25 120.19 L 234.57 120.19 L 233.89 119.52 L 231.85 119.52 L 231.18 118.84 L 224.39 118.84 L 223.71 119.52 L 220.99 119.52 L 220.32 120.19 L 218.28 120.19 L 217.60 120.87 L 215.56 120.87 L 214.88 121.55 L 213.53 121.55 L 212.85 122.23 L 211.49 122.23 L 210.81 122.91 L 209.45 122.91 L 208.78 123.59 L 207.42 123.59 L 206.74 124.27 L 206.06 124.27 L 205.38 124.95 L 204.02 124.95 L 203.35 125.62 L 201.99 125.62 L 201.31 126.30 L 200.63 126.30 L 199.95 126.98 L 198.59 126.98 L 197.92 127.66 L 197.24 127.66 L 196.56 128.34 L 195.88 128.34 L 195.20 129.02 L 193.84 129.02 L 193.16 129.70 L 192.48 129.70 L 191.81 130.38 L 190.45 130.38 L 189.77 131.05 L 189.09 131.05 L 188.41 131.73 L 187.73 131.73 L 187.05 132.41 L 186.38 132.41 L 185.70 133.09 L 185.02 133.09 L 184.34 133.77 L 184.34 138.52 L 185.02 139.20 L 185.02 145.31 L 184.34 145.99 L 184.34 147.35 L 179.59 152.10 L 178.91 152.10 L 177.55 153.45 L 176.87 153.45 L 176.19 154.13 L 175.52 154.13 L 174.16 155.49 L 173.48 155.49 L 172.80 156.17 L 172.12 156.17 L 171.44 156.85 L 170.76 156.85 L 170.08 157.53 L 168.73 157.53 L 168.05 158.21 L 167.37 158.21 L 166.69 158.88 L 165.33 158.88 L 164.65 159.56 L 163.30 159.56 L 162.62 160.24 L 161.26 160.24 L 160.58 160.92 L 159.22 160.92 L 158.55 161.60 L 155.83 161.60 L 155.15 162.28 L 153.12 162.28 L 152.44 162.96 L 149.04 162.96 L 148.36 163.64 L 143.61 163.64 L 142.93 164.32 L 136.15 164.32 L 135.47 164.99 L 119.85 164.99 L 119.18 164.32 L 111.71 164.32 L 111.03 163.64 L 106.28 163.64 L 105.60 162.96 L 102.21 162.96 L 101.53 162.28 L 98.81 162.28 L 98.13 161.60 L 96.78 161.60 L 96.10 160.92 L 94.06 160.92 L 93.38 160.24 L 91.35 160.24 L 90.67 159.56 L 89.31 159.56 L 88.63 158.88 L 87.95 158.88 L 87.27 158.21 L 86.59 158.21 L 85.92 157.53 L 84.56 157.53 L 83.88 156.85 L 83.20 156.85 L 82.52 156.17 L 81.84 156.17 L 81.16 155.49 L 80.48 155.49 L 79.81 154.81 L 79.13 154.81 L 77.77 153.45 L 77.09 153.45 L 75.05 151.42 L 74.38 151.42 L 71.66 148.70 L 71.66 148.02 L 70.98 147.35 L 70.98 146.67 L 70.30 145.99 L 70.30 139.88 L 70.98 139.20 L 70.98 133.77 L 70.30 133.09 L 68.95 133.09 L 68.27 132.41 L 67.59 132.41 L 66.91 131.73 L 66.23 131.73 L 65.55 131.05 L 64.87 131.05 L 64.19 130.38 L 63.52 130.38 L 62.84 129.70 L 61.48 129.70 L 60.80 129.02 L 60.12 129.02 L 59.44 128.34 L 58.08 128.34 L 57.41 127.66 L 56.73 127.66 L 56.05 126.98 L 55.37 126.98 L 54.69 126.30 L 53.33 126.30 L 52.65 125.62 L 51.98 125.62 L 51.30 124.95 L 49.94 124.95 L 49.26 124.27 L 47.90 124.27 L 47.22 123.59 L 45.87 123.59 L 45.19 122.91 L 44.51 122.91 L 43.83 122.23 L 42.47 122.23 L 41.79 121.55 L 40.44 121.55 L 39.76 120.87 L 37.72 120.87 L 37.04 120.19 L 35.01 120.19 L 34.33 119.52 L 30.93 119.52 L 30.25 118.84 L 24.15 118.84 L 23.47 119.52 L 21.43 119.52 L 20.75 120.19 L 20.07 120.19 L 16.68 123.59 L 16.68 124.95 Z M 90.67 69.28 L 90.67 69.96 L 89.31 71.32 L 89.31 72.68 L 88.63 73.36 L 88.63 74.04 L 87.95 74.72 L 87.95 75.39 L 87.27 76.07 L 87.27 77.43 L 86.59 78.11 L 86.59 79.47 L 85.92 80.15 L 85.92 81.50 L 85.24 82.18 L 85.24 84.22 L 84.56 84.90 L 84.56 86.25 L 83.88 86.93 L 83.88 88.29 L 83.20 88.97 L 83.20 91.01 L 82.52 91.68 L 82.52 93.04 L 81.84 93.72 L 81.84 95.76 L 81.16 96.44 L 81.16 98.47 L 80.48 99.15 L 80.48 101.19 L 79.81 101.87 L 79.81 103.90 L 79.13 104.58 L 79.13 106.62 L 78.45 107.30 L 78.45 109.33 L 77.77 110.01 L 77.77 112.73 L 77.09 113.41 L 77.09 116.12 L 76.41 116.80 L 76.41 119.52 L 75.73 120.19 L 75.73 122.91 L 75.05 123.59 L 75.05 126.98 L 74.38 127.66 L 74.38 131.05 L 77.09 133.77 L 77.77 133.77 L 79.13 135.13 L 79.81 135.13 L 80.48 135.81 L 81.16 135.81 L 81.84 136.48 L 82.52 136.48 L 83.20 137.16 L 83.88 137.16 L 84.56 137.84 L 85.24 137.84 L 85.92 138.52 L 86.59 138.52 L 87.27 139.20 L 87.95 139.20 L 88.63 139.88 L 89.99 139.88 L 90.67 140.56 L 92.02 140.56 L 92.70 141.24 L 94.06 141.24 L 94.74 141.92 L 96.10 141.92 L 96.78 142.59 L 98.13 142.59 L 98.81 143.27 L 100.85 143.27 L 101.53 143.95 L 102.88 143.95 L 103.56 144.63 L 106.28 144.63 L 106.96 145.31 L 110.35 145.31 L 111.03 145.99 L 115.78 145.99 L 116.46 146.67 L 138.18 146.67 L 138.86 145.99 L 143.61 145.99 L 144.29 145.31 L 147.68 145.31 L 148.36 144.63 L 150.40 144.63 L 151.08 143.95 L 153.79 143.95 L 154.47 143.27 L 155.83 143.27 L 156.51 142.59 L 158.55 142.59 L 159.22 141.92 L 160.58 141.92 L 161.26 141.24 L 162.62 141.24 L 163.30 140.56 L 163.98 140.56 L 164.65 139.88 L 166.01 139.88 L 166.69 139.20 L 167.37 139.20 L 168.05 138.52 L 168.73 138.52 L 169.41 137.84 L 170.76 137.84 L 172.12 136.48 L 172.80 136.48 L 173.48 135.81 L 174.16 135.81 L 174.84 135.13 L 175.52 135.13 L 176.87 133.77 L 177.55 133.77 L 179.59 131.73 L 180.27 131.73 L 180.95 131.05 L 180.95 126.98 L 180.27 126.30 L 180.27 123.59 L 179.59 122.91 L 179.59 119.52 L 178.91 118.84 L 178.91 116.80 L 178.23 116.12 L 178.23 113.41 L 177.55 112.73 L 177.55 110.01 L 176.87 109.33 L 176.87 107.30 L 176.19 106.62 L 176.19 104.58 L 175.52 103.90 L 175.52 101.87 L 174.84 101.19 L 174.84 99.15 L 174.16 98.47 L 174.16 96.44 L 173.48 95.76 L 173.48 93.72 L 172.80 93.04 L 172.80 91.01 L 172.12 90.33 L 172.12 88.29 L 171.44 87.61 L 171.44 86.25 L 170.76 85.58 L 170.76 83.54 L 170.08 82.86 L 170.08 81.50 L 169.41 80.82 L 169.41 79.47 L 168.73 78.79 L 168.73 77.43 L 168.05 76.75 L 168.05 76.07 L 167.37 75.39 L 167.37 74.04 L 166.69 73.36 L 166.69 72.68 L 166.01 72.00 L 166.01 71.32 L 164.65 69.96 L 164.65 69.28 L 160.58 65.21 L 159.22 65.21 L 158.55 64.53 L 152.44 64.53 L 151.76 65.21 L 150.40 65.21 L 149.72 65.89 L 149.04 65.89 L 148.36 66.57 L 147.68 66.57 L 147.01 67.25 L 146.33 67.25 L 144.97 68.61 L 144.29 68.61 L 141.58 71.32 L 140.90 71.32 L 138.86 73.36 L 138.18 73.36 L 136.82 74.72 L 136.15 74.72 L 134.79 76.07 L 134.11 76.07 L 133.43 76.75 L 132.07 76.75 L 131.39 77.43 L 123.93 77.43 L 123.25 76.75 L 121.89 76.75 L 121.21 76.07 L 120.53 76.07 L 119.18 74.72 L 118.50 74.72 L 117.14 73.36 L 116.46 73.36 L 114.42 71.32 L 113.75 71.32 L 111.71 69.28 L 111.03 69.28 L 108.99 67.25 L 108.32 67.25 L 107.64 66.57 L 106.96 66.57 L 106.28 65.89 L 105.60 65.89 L 104.92 65.21 L 103.56 65.21 L 102.88 64.53 L 97.45 64.53 L 96.78 65.21 L 95.42 65.21 L 94.74 65.89 L 94.06 65.89 Z" fill="#fff" fill-rule="evenodd" clip-rule="evenodd"/>
</svg>
